<mxfile host="Electron" modified="2023-11-22T10:36:51.305Z" agent="Mozilla/5.0 (Windows NT 10.0; Win64; x64) AppleWebKit/537.36 (KHTML, like Gecko) draw.io/22.1.2 Chrome/114.0.5735.289 Electron/25.9.4 Safari/537.36" etag="pfKc3Ly2Wt0cR7n2u57X" version="22.1.2" type="device">
  <diagram name="Page-1" id="sboTChfXQUpLmmdIoU6G">
    <mxGraphModel dx="2857" dy="1011" grid="1" gridSize="10" guides="1" tooltips="1" connect="1" arrows="1" fold="1" page="1" pageScale="1" pageWidth="850" pageHeight="1100" math="0" shadow="0">
      <root>
        <mxCell id="0" />
        <mxCell id="1" parent="0" />
        <object c4Name="Quản lý đăng ký học phần sinh viên" c4Type="SystemScopeBoundary" c4Application="Software System" label="&lt;font style=&quot;font-size: 16px&quot;&gt;&lt;b&gt;&lt;div style=&quot;text-align: left&quot;&gt;%c4Name%&lt;/div&gt;&lt;/b&gt;&lt;/font&gt;&lt;div style=&quot;text-align: left&quot;&gt;[%c4Application%]&lt;/div&gt;" placeholders="1" id="aA3SCGuVG5AD0XTepaQZ-31">
          <mxCell style="rounded=1;fontSize=11;whiteSpace=wrap;html=1;dashed=1;arcSize=20;fillColor=none;strokeColor=#666666;fontColor=#333333;labelBackgroundColor=none;align=left;verticalAlign=bottom;labelBorderColor=none;spacingTop=0;spacing=10;dashPattern=8 4;metaEdit=1;rotatable=0;perimeter=rectanglePerimeter;noLabel=0;labelPadding=0;allowArrows=0;connectable=0;expand=0;recursiveResize=0;editable=1;pointerEvents=0;absoluteArcSize=1;points=[[0.25,0,0],[0.5,0,0],[0.75,0,0],[1,0.25,0],[1,0.5,0],[1,0.75,0],[0.75,1,0],[0.5,1,0],[0.25,1,0],[0,0.75,0],[0,0.5,0],[0,0.25,0]];" parent="1" vertex="1">
            <mxGeometry x="-15" y="59" width="880" height="982" as="geometry" />
          </mxCell>
        </object>
        <mxCell id="aA3SCGuVG5AD0XTepaQZ-2" value="Sinh Viên" style="shape=umlActor;verticalLabelPosition=bottom;verticalAlign=top;html=1;" parent="1" vertex="1">
          <mxGeometry x="-65" y="330" width="30" height="60" as="geometry" />
        </mxCell>
        <mxCell id="aA3SCGuVG5AD0XTepaQZ-3" value="Đăng ký học phần" style="ellipse;whiteSpace=wrap;html=1;" parent="1" vertex="1">
          <mxGeometry x="70" y="140" width="140" height="70" as="geometry" />
        </mxCell>
        <mxCell id="aA3SCGuVG5AD0XTepaQZ-4" value="" style="endArrow=none;html=1;rounded=0;" parent="1" source="aA3SCGuVG5AD0XTepaQZ-2" target="aA3SCGuVG5AD0XTepaQZ-3" edge="1">
          <mxGeometry width="50" height="50" relative="1" as="geometry">
            <mxPoint x="305" y="502" as="sourcePoint" />
            <mxPoint x="355" y="452" as="targetPoint" />
          </mxGeometry>
        </mxCell>
        <mxCell id="aA3SCGuVG5AD0XTepaQZ-5" value="Đăng nhập" style="ellipse;whiteSpace=wrap;html=1;" parent="1" vertex="1">
          <mxGeometry x="375" y="480" width="140" height="70" as="geometry" />
        </mxCell>
        <mxCell id="aA3SCGuVG5AD0XTepaQZ-6" value="Admin" style="shape=umlActor;verticalLabelPosition=bottom;verticalAlign=top;html=1;" parent="1" vertex="1">
          <mxGeometry x="-65" y="752" width="30" height="60" as="geometry" />
        </mxCell>
        <mxCell id="aA3SCGuVG5AD0XTepaQZ-7" value="&amp;lt;&amp;lt;include&amp;gt;&amp;gt;" style="html=1;verticalAlign=bottom;labelBackgroundColor=none;endArrow=open;endFill=0;dashed=1;rounded=0;" parent="1" source="aA3SCGuVG5AD0XTepaQZ-3" target="aA3SCGuVG5AD0XTepaQZ-5" edge="1">
          <mxGeometry width="160" relative="1" as="geometry">
            <mxPoint x="275" y="532" as="sourcePoint" />
            <mxPoint x="435" y="532" as="targetPoint" />
          </mxGeometry>
        </mxCell>
        <mxCell id="aA3SCGuVG5AD0XTepaQZ-8" value="Quản lý lớp học" style="ellipse;whiteSpace=wrap;html=1;" parent="1" vertex="1">
          <mxGeometry x="70" y="620" width="140" height="70" as="geometry" />
        </mxCell>
        <mxCell id="aA3SCGuVG5AD0XTepaQZ-9" value="" style="endArrow=none;html=1;rounded=0;" parent="1" source="aA3SCGuVG5AD0XTepaQZ-6" target="aA3SCGuVG5AD0XTepaQZ-8" edge="1">
          <mxGeometry width="50" height="50" relative="1" as="geometry">
            <mxPoint x="-25" y="737" as="sourcePoint" />
            <mxPoint x="166" y="676" as="targetPoint" />
          </mxGeometry>
        </mxCell>
        <mxCell id="aA3SCGuVG5AD0XTepaQZ-10" value="&amp;lt;&amp;lt;include&amp;gt;&amp;gt;" style="html=1;verticalAlign=bottom;labelBackgroundColor=none;endArrow=open;endFill=0;dashed=1;rounded=0;" parent="1" source="aA3SCGuVG5AD0XTepaQZ-8" target="aA3SCGuVG5AD0XTepaQZ-5" edge="1">
          <mxGeometry width="160" relative="1" as="geometry">
            <mxPoint x="291" y="669" as="sourcePoint" />
            <mxPoint x="422.7299618403256" y="744.1017748146148" as="targetPoint" />
          </mxGeometry>
        </mxCell>
        <mxCell id="aA3SCGuVG5AD0XTepaQZ-14" value="Quản lý sinh viên" style="ellipse;whiteSpace=wrap;html=1;" parent="1" vertex="1">
          <mxGeometry x="70" y="800" width="140" height="70" as="geometry" />
        </mxCell>
        <mxCell id="aA3SCGuVG5AD0XTepaQZ-15" value="" style="endArrow=none;html=1;rounded=0;" parent="1" source="aA3SCGuVG5AD0XTepaQZ-6" target="aA3SCGuVG5AD0XTepaQZ-14" edge="1">
          <mxGeometry width="50" height="50" relative="1" as="geometry">
            <mxPoint x="-25" y="742" as="sourcePoint" />
            <mxPoint x="155" y="738" as="targetPoint" />
          </mxGeometry>
        </mxCell>
        <mxCell id="aA3SCGuVG5AD0XTepaQZ-16" value="&amp;lt;&amp;lt;include&amp;gt;&amp;gt;" style="html=1;verticalAlign=bottom;labelBackgroundColor=none;endArrow=open;endFill=0;dashed=1;rounded=0;" parent="1" source="aA3SCGuVG5AD0XTepaQZ-14" target="aA3SCGuVG5AD0XTepaQZ-5" edge="1">
          <mxGeometry width="160" relative="1" as="geometry">
            <mxPoint x="295" y="737" as="sourcePoint" />
            <mxPoint x="407.11514485513294" y="752.3191492507453" as="targetPoint" />
          </mxGeometry>
        </mxCell>
        <mxCell id="aA3SCGuVG5AD0XTepaQZ-17" value="Quản lý điểm" style="ellipse;whiteSpace=wrap;html=1;" parent="1" vertex="1">
          <mxGeometry x="70" y="890" width="140" height="70" as="geometry" />
        </mxCell>
        <mxCell id="aA3SCGuVG5AD0XTepaQZ-18" value="" style="endArrow=none;html=1;rounded=0;" parent="1" source="aA3SCGuVG5AD0XTepaQZ-6" target="aA3SCGuVG5AD0XTepaQZ-17" edge="1">
          <mxGeometry width="50" height="50" relative="1" as="geometry">
            <mxPoint x="-25" y="780" as="sourcePoint" />
            <mxPoint x="157" y="756" as="targetPoint" />
          </mxGeometry>
        </mxCell>
        <mxCell id="aA3SCGuVG5AD0XTepaQZ-19" value="&amp;lt;&amp;lt;include&amp;gt;&amp;gt;" style="html=1;verticalAlign=bottom;labelBackgroundColor=none;endArrow=open;endFill=0;dashed=1;rounded=0;" parent="1" source="aA3SCGuVG5AD0XTepaQZ-17" target="aA3SCGuVG5AD0XTepaQZ-5" edge="1">
          <mxGeometry width="160" relative="1" as="geometry">
            <mxPoint x="293" y="755" as="sourcePoint" />
            <mxPoint x="395" y="772" as="targetPoint" />
          </mxGeometry>
        </mxCell>
        <mxCell id="aA3SCGuVG5AD0XTepaQZ-23" value="Tra cứu học phần" style="ellipse;whiteSpace=wrap;html=1;" parent="1" vertex="1">
          <mxGeometry x="70" y="378" width="140" height="70" as="geometry" />
        </mxCell>
        <mxCell id="aA3SCGuVG5AD0XTepaQZ-24" value="" style="endArrow=none;html=1;rounded=0;" parent="1" source="aA3SCGuVG5AD0XTepaQZ-2" target="aA3SCGuVG5AD0XTepaQZ-23" edge="1">
          <mxGeometry width="50" height="50" relative="1" as="geometry">
            <mxPoint x="-25" y="406" as="sourcePoint" />
            <mxPoint x="82" y="360" as="targetPoint" />
          </mxGeometry>
        </mxCell>
        <mxCell id="aA3SCGuVG5AD0XTepaQZ-25" value="&amp;lt;&amp;lt;include&amp;gt;&amp;gt;" style="html=1;verticalAlign=bottom;labelBackgroundColor=none;endArrow=open;endFill=0;dashed=1;rounded=0;" parent="1" source="aA3SCGuVG5AD0XTepaQZ-23" target="aA3SCGuVG5AD0XTepaQZ-5" edge="1">
          <mxGeometry width="160" relative="1" as="geometry">
            <mxPoint x="191" y="358" as="sourcePoint" />
            <mxPoint x="274" y="391" as="targetPoint" />
          </mxGeometry>
        </mxCell>
        <mxCell id="aA3SCGuVG5AD0XTepaQZ-26" value="Hủy học phần" style="ellipse;whiteSpace=wrap;html=1;" parent="1" vertex="1">
          <mxGeometry x="70" y="260" width="140" height="70" as="geometry" />
        </mxCell>
        <mxCell id="aA3SCGuVG5AD0XTepaQZ-27" value="" style="endArrow=none;html=1;rounded=0;" parent="1" source="aA3SCGuVG5AD0XTepaQZ-2" target="aA3SCGuVG5AD0XTepaQZ-26" edge="1">
          <mxGeometry width="50" height="50" relative="1" as="geometry">
            <mxPoint x="-25" y="402" as="sourcePoint" />
            <mxPoint x="93" y="325" as="targetPoint" />
          </mxGeometry>
        </mxCell>
        <mxCell id="aA3SCGuVG5AD0XTepaQZ-28" value="&amp;lt;&amp;lt;include&amp;gt;&amp;gt;" style="html=1;verticalAlign=bottom;labelBackgroundColor=none;endArrow=open;endFill=0;dashed=1;rounded=0;" parent="1" source="aA3SCGuVG5AD0XTepaQZ-26" target="aA3SCGuVG5AD0XTepaQZ-5" edge="1">
          <mxGeometry width="160" relative="1" as="geometry">
            <mxPoint x="180" y="324" as="sourcePoint" />
            <mxPoint x="285" y="385" as="targetPoint" />
          </mxGeometry>
        </mxCell>
        <mxCell id="aA3SCGuVG5AD0XTepaQZ-29" value="&amp;lt;&amp;lt;extend&amp;gt;&amp;gt;" style="html=1;verticalAlign=bottom;labelBackgroundColor=none;endArrow=open;endFill=0;dashed=1;rounded=0;" parent="1" source="aA3SCGuVG5AD0XTepaQZ-5" target="aA3SCGuVG5AD0XTepaQZ-30" edge="1">
          <mxGeometry width="160" relative="1" as="geometry">
            <mxPoint x="417.5" y="589" as="sourcePoint" />
            <mxPoint x="977.5" y="649" as="targetPoint" />
          </mxGeometry>
        </mxCell>
        <mxCell id="aA3SCGuVG5AD0XTepaQZ-30" value="Quên mật khẩu" style="ellipse;whiteSpace=wrap;html=1;" parent="1" vertex="1">
          <mxGeometry x="375" y="275" width="140" height="70" as="geometry" />
        </mxCell>
        <mxCell id="aA3SCGuVG5AD0XTepaQZ-33" value="Giảng viên" style="shape=umlActor;verticalLabelPosition=bottom;verticalAlign=top;html=1;" parent="1" vertex="1">
          <mxGeometry x="885" y="485" width="30" height="60" as="geometry" />
        </mxCell>
        <mxCell id="aA3SCGuVG5AD0XTepaQZ-38" value="Đăng ký lịch dạy" style="ellipse;whiteSpace=wrap;html=1;" parent="1" vertex="1">
          <mxGeometry x="605" y="480" width="140" height="70" as="geometry" />
        </mxCell>
        <mxCell id="aA3SCGuVG5AD0XTepaQZ-39" value="" style="endArrow=none;html=1;rounded=0;" parent="1" source="aA3SCGuVG5AD0XTepaQZ-33" target="aA3SCGuVG5AD0XTepaQZ-38" edge="1">
          <mxGeometry width="50" height="50" relative="1" as="geometry">
            <mxPoint x="895" y="597" as="sourcePoint" />
            <mxPoint x="721" y="454" as="targetPoint" />
          </mxGeometry>
        </mxCell>
        <mxCell id="aA3SCGuVG5AD0XTepaQZ-40" value="&amp;lt;&amp;lt;include&amp;gt;&amp;gt;" style="html=1;verticalAlign=bottom;labelBackgroundColor=none;endArrow=open;endFill=0;dashed=1;rounded=0;" parent="1" source="aA3SCGuVG5AD0XTepaQZ-38" target="aA3SCGuVG5AD0XTepaQZ-5" edge="1">
          <mxGeometry width="160" relative="1" as="geometry">
            <mxPoint x="648" y="454" as="sourcePoint" />
            <mxPoint x="492" y="579" as="targetPoint" />
          </mxGeometry>
        </mxCell>
        <mxCell id="aA3SCGuVG5AD0XTepaQZ-41" value="Khảo sát môn học" style="ellipse;whiteSpace=wrap;html=1;" parent="1" vertex="1">
          <mxGeometry x="70" y="490" width="140" height="70" as="geometry" />
        </mxCell>
        <mxCell id="aA3SCGuVG5AD0XTepaQZ-42" value="" style="endArrow=none;html=1;rounded=0;" parent="1" source="aA3SCGuVG5AD0XTepaQZ-2" target="aA3SCGuVG5AD0XTepaQZ-41" edge="1">
          <mxGeometry width="50" height="50" relative="1" as="geometry">
            <mxPoint x="-25" y="412" as="sourcePoint" />
            <mxPoint x="80" y="412" as="targetPoint" />
          </mxGeometry>
        </mxCell>
        <mxCell id="aA3SCGuVG5AD0XTepaQZ-43" value="&amp;lt;&amp;lt;include&amp;gt;&amp;gt;" style="html=1;verticalAlign=bottom;labelBackgroundColor=none;endArrow=open;endFill=0;dashed=1;rounded=0;" parent="1" source="aA3SCGuVG5AD0XTepaQZ-41" target="aA3SCGuVG5AD0XTepaQZ-5" edge="1">
          <mxGeometry width="160" relative="1" as="geometry">
            <mxPoint x="193" y="440" as="sourcePoint" />
            <mxPoint x="412" y="581" as="targetPoint" />
          </mxGeometry>
        </mxCell>
        <mxCell id="0hWJdqELzu0hoZW5CI5M-1" value="Quản lý giảng viên" style="ellipse;whiteSpace=wrap;html=1;" vertex="1" parent="1">
          <mxGeometry x="70" y="710" width="140" height="70" as="geometry" />
        </mxCell>
        <mxCell id="0hWJdqELzu0hoZW5CI5M-2" value="" style="endArrow=none;html=1;rounded=0;" edge="1" parent="1" source="aA3SCGuVG5AD0XTepaQZ-6" target="0hWJdqELzu0hoZW5CI5M-1">
          <mxGeometry width="50" height="50" relative="1" as="geometry">
            <mxPoint x="-25" y="786" as="sourcePoint" />
            <mxPoint x="89" y="818" as="targetPoint" />
          </mxGeometry>
        </mxCell>
        <mxCell id="0hWJdqELzu0hoZW5CI5M-3" value="&amp;lt;&amp;lt;include&amp;gt;&amp;gt;" style="html=1;verticalAlign=bottom;labelBackgroundColor=none;endArrow=open;endFill=0;dashed=1;rounded=0;" edge="1" parent="1" source="0hWJdqELzu0hoZW5CI5M-1" target="aA3SCGuVG5AD0XTepaQZ-5">
          <mxGeometry width="160" relative="1" as="geometry">
            <mxPoint x="189" y="806" as="sourcePoint" />
            <mxPoint x="416" y="638" as="targetPoint" />
          </mxGeometry>
        </mxCell>
      </root>
    </mxGraphModel>
  </diagram>
</mxfile>
